<svg height="512pt" viewBox="-96 0 512 512.00212" width="512pt" xmlns="http://www.w3.org/2000/svg"><path d="m179.15625 192.191406v-173.484375c0-10.332031-8.371094-18.707031-18.703125-18.707031-10.328125 0-18.703125 8.375-18.703125 18.707031v173.484375c-79.695312 9.292969-141.75 77.210938-141.75 159.355469 0 88.476563 71.980469 160.453125 160.453125 160.453125 88.476563 0 160.453125-71.976562 160.453125-160.453125 0-82.144531-62.054688-150.0625-141.75-159.355469zm-140.328125 178.0625h243.25c-9.035156 59-60.132813 104.339844-121.625 104.339844-61.488281 0-112.589844-45.339844-121.625-104.339844zm243.25-37.410156h-243.25c9.035156-59.003906 60.136719-104.339844 121.625-104.339844 61.492187 0 112.589844 45.335938 121.625 104.339844zm0 0" fill="#ffe55a"/><g fill="#ffd500"><path d="m38.828125 370.253906h-12.484375c-3.304688 0-5.757812 3.039063-5.089844 6.273438 11.574219 55.910156 61.203125 98.066406 120.496094 98.066406 3.148438 0 6.265625-.125 9.351562-.359375-57.253906-4.324219-103.699218-48-112.273437-103.980469zm0 0"/><path d="m26.34375 332.84375h12.484375c8.574219-55.984375 55.019531-99.660156 112.273437-103.984375-3.085937-.230469-6.207031-.355469-9.351562-.355469-59.289062 0-108.921875 42.152344-120.496094 98.0625-.667968 3.234375 1.785156 6.277344 5.089844 6.277344zm0 0"/><path d="m179.15625 192.191406v-173.0625c0-9.695312-7.207031-18.097656-16.855469-19.0390622-4.105469-.3984378-7.953125.5546872-11.199219 2.4335942 5.585938 3.234374 9.351563 9.261718 9.351563 16.183593v168.933594c0 2.574219 1.886719 4.761719 4.4375 5.128906 77.546875 11.25 137.3125 78.160157 137.3125 158.777344 0 85.335937-66.964844 155.316406-151.101563 160.175781 3.097657.179688 6.210938.28125 9.351563.28125 88.476563 0 160.453125-71.980468 160.453125-160.453125 0-82.148437-62.054688-150.066406-141.75-159.359375zm0 0"/></g></svg>